<?xml version="1.0" encoding="utf-8"?>
<svg xmlns="http://www.w3.org/2000/svg" viewBox="0 0 64 64" width="512" height="512">
  <path d="M28.291016 6L26.40625 11.759766C23.555212 12.546093 20.947841 13.915585 18.720703 15.736328L20.058594 12.828125L17.707031 11.548828C16.928031 11.125828 15.963891 11.265578 15.337891 11.892578L10.992188 16.236328L13.738281 21.654297C12.333118 24.129074 11.405235 26.910082 11.107422 29.880859L10 26.886719L7.4335938 27.646484C6.5835938 27.897484 6 28.678453 6 29.564453L6 35.708984L11.759766 37.59375C12.546093 40.444788 13.915585 43.052159 15.736328 45.279297L12.828125 43.941406L11.548828 46.292969C11.125828 47.071969 11.265578 48.036109 11.892578 48.662109L16.236328 53.007812L21.654297 50.261719C24.129074 51.666882 26.910082 52.594765 29.880859 52.892578L26.886719 54L27.646484 56.566406C27.897484 57.416406 28.678453 58 29.564453 58L35.708984 58L37.59375 52.240234C40.444788 51.453907 43.052159 50.084415 45.279297 48.263672L43.941406 51.171875L46.292969 52.451172C47.071969 52.874172 48.036109 52.734422 48.662109 52.107422L53.007812 47.763672L50.261719 42.345703C51.666882 39.870926 52.594765 37.089918 52.892578 34.119141L54 37.113281L56.566406 36.353516C57.416406 36.102516 58 35.321547 58 34.435547L58 28.291016L52.240234 26.40625C51.453907 23.555212 50.084415 20.947841 48.263672 18.720703L51.171875 20.058594L52.451172 17.707031C52.874172 16.928031 52.734422 15.963891 52.107422 15.337891L47.763672 10.992188L42.345703 13.738281C39.870926 12.333118 37.089918 11.405235 34.119141 11.107422L37.113281 10L36.353516 7.4335938C36.102516 6.5835938 35.321547 6 34.435547 6L28.291016 6 z M 32 16C40.837 16 48 23.163 48 32C48 40.836 40.837 48 32 48C23.163 48 16 40.836 16 32C16 23.163 23.163 16 32 16 z M 32 20C25.373 20 20 25.373 20 32C20 38.627 25.373 44 32 44C38.627 44 44 38.627 44 32C44 25.373 38.627 20 32 20 z M 32 28C34.209 28 36 29.791 36 32C36 34.209 34.209 36 32 36C29.791 36 28 34.209 28 32C28 29.791 29.791 28 32 28 z" />
</svg>